<?xml version="1.0" encoding="utf-8"?>
<svg width="154px" height="30px" viewBox="0 0 154 30" version="1.1" xmlns:xlink="http://www.w3.org/1999/xlink" xmlns="http://www.w3.org/2000/svg">
  <g id="betterdev" fill="#397BCB">
    <path d="M13.776 26.28Q14.208 26.616 14.616 26.616Q14.952 26.616 15.228 26.424Q15.504 26.232 15.672 25.896L25.392 5.952Q25.536 5.664 25.536 5.376Q25.536 4.824 25.116 4.5Q24.696 4.176 24.288 4.176Q23.976 4.176 23.688 4.368Q23.4 4.56 23.232 4.896L13.488 24.84Q13.344 25.128 13.344 25.416Q13.344 25.944 13.776 26.28ZM34.44 10.32Q36.12 10.32 37.452 11.172Q38.784 12.024 39.564 13.512Q40.344 15 40.344 16.968Q40.344 18.936 39.564 20.436Q38.784 21.936 37.476 22.788Q36.168 23.64 34.536 23.64Q33.576 23.64 32.736 23.328Q31.896 23.016 31.26 22.536Q30.9264 22.2842 30.672 22.0291L30.672 22.176Q30.672 22.8 30.264 23.22Q29.856 23.64 29.232 23.64Q28.608 23.64 28.2 23.232Q27.792 22.824 27.792 22.176L27.792 7.104Q27.792 6.48 28.2 6.06Q28.608 5.64 29.232 5.64Q29.856 5.64 30.264 6.06Q30.672 6.48 30.672 7.104L30.672 12.1362Q30.9955 11.7381 31.512 11.34Q32.088 10.896 32.844 10.608Q33.6 10.32 34.44 10.32ZM111.024 5.64Q111.648 5.64 112.056 6.048Q112.464 6.456 112.464 7.104L112.464 21.936Q112.464 22.56 112.056 22.98Q111.648 23.4 111.024 23.4Q110.4 23.4 109.992 22.98Q109.593 22.5691 109.584 21.963Q109.29 22.2888 108.864 22.608Q108.288 23.04 107.508 23.34Q106.728 23.64 105.816 23.64Q104.16 23.64 102.816 22.788Q101.472 21.936 100.692 20.436Q99.912 18.936 99.912 16.992Q99.912 15.024 100.692 13.524Q101.472 12.024 102.792 11.172Q104.112 10.32 105.72 10.32Q106.752 10.32 107.616 10.632Q108.48 10.944 109.116 11.424Q109.374 11.6184 109.584 11.8148L109.584 7.104Q109.584 6.48 109.992 6.06Q110.4 5.64 111.024 5.64ZM59.376 7.8Q60 7.8 60.396 8.22Q60.792 8.64 60.792 9.264L60.792 10.8L62.496 10.8Q63.072 10.8 63.456 11.184Q63.84 11.568 63.84 12.144Q63.84 12.696 63.456 13.068Q63.072 13.44 62.496 13.44L60.792 13.44L60.792 19.944Q60.792 20.28 60.924 20.496Q61.056 20.712 61.284 20.808Q61.512 20.904 61.776 20.904Q62.064 20.904 62.304 20.796Q62.544 20.688 62.856 20.688Q63.192 20.688 63.468 21Q63.744 21.312 63.744 21.864Q63.744 22.536 63.012 22.968C62.524 23.256 62 23.4 61.44 23.4C61.104 23.4 60.732 23.372 60.324 23.316Q59.712 23.232 59.172 22.908Q58.632 22.584 58.272 21.912Q57.912 21.24 57.912 20.064L57.912 13.44L56.808 13.44Q56.232 13.44 55.848 13.056Q55.464 12.672 55.464 12.096Q55.464 11.544 55.848 11.172Q56.232 10.8 56.808 10.8L57.912 10.8L57.912 9.264Q57.912 8.64 58.332 8.22Q58.752 7.8 59.376 7.8ZM70.212 8.22Q69.816 7.8 69.192 7.8Q68.568 7.8 68.148 8.22Q67.728 8.64 67.728 9.264L67.728 10.8L66.624 10.8Q66.048 10.8 65.664 11.172Q65.28 11.544 65.28 12.096Q65.28 12.672 65.664 13.056Q66.048 13.44 66.624 13.44L67.728 13.44L67.728 20.064Q67.728 21.24 68.088 21.912Q68.448 22.584 68.988 22.908Q69.528 23.232 70.14 23.316C70.548 23.372 70.92 23.4 71.256 23.4C71.816 23.4 72.34 23.256 72.828 22.968Q73.56 22.536 73.56 21.864Q73.56 21.312 73.284 21Q73.008 20.688 72.672 20.688Q72.36 20.688 72.12 20.796Q71.88 20.904 71.592 20.904Q71.328 20.904 71.1 20.808Q70.872 20.712 70.74 20.496Q70.608 20.28 70.608 19.944L70.608 13.44L72.312 13.44Q72.888 13.44 73.272 13.068Q73.656 12.696 73.656 12.144Q73.656 11.568 73.272 11.184Q72.888 10.8 72.312 10.8L70.608 10.8L70.608 9.264Q70.608 8.64 70.212 8.22ZM45.132 22.788Q46.632 23.64 48.672 23.64Q49.872 23.64 51 23.244Q52.128 22.848 52.752 22.32Q53.424 21.792 53.424 21.144Q53.424 20.664 53.076 20.304Q52.728 19.944 52.2 19.944Q51.816 19.944 51.384 20.16Q51.12 20.304 50.796 20.508Q50.472 20.712 49.944 20.856Q49.416 21 48.528 21Q47.568 21 46.716 20.532Q45.864 20.064 45.324 19.164Q45.0082 18.6377 44.8771 17.976L52.8 17.976Q53.376 17.976 53.808 17.616Q54.24 17.256 54.264 16.68Q54.264 15.384 53.772 14.232Q53.28 13.08 52.44 12.204Q51.6 11.328 50.508 10.824Q49.416 10.32 48.192 10.32Q46.608 10.32 45.192 11.136Q43.776 11.952 42.9 13.476Q42.024 15 42.024 17.16Q42.024 19.008 42.828 20.472Q43.632 21.936 45.132 22.788ZM82.224 23.64Q80.184 23.64 78.684 22.788Q77.184 21.936 76.38 20.472Q75.576 19.008 75.576 17.16Q75.576 15 76.452 13.476Q77.328 11.952 78.744 11.136Q80.16 10.32 81.744 10.32Q82.968 10.32 84.06 10.824Q85.152 11.328 85.992 12.204Q86.832 13.08 87.324 14.232Q87.816 15.384 87.816 16.68Q87.792 17.256 87.36 17.616Q86.928 17.976 86.352 17.976L78.4291 17.976Q78.5602 18.6377 78.876 19.164Q79.416 20.064 80.268 20.532Q81.12 21 82.08 21Q82.968 21 83.496 20.856Q84.024 20.712 84.348 20.508Q84.672 20.304 84.936 20.16Q85.368 19.944 85.752 19.944Q86.28 19.944 86.628 20.304Q86.976 20.664 86.976 21.144Q86.976 21.792 86.304 22.32Q85.68 22.848 84.552 23.244Q83.424 23.64 82.224 23.64ZM90.624 22.98Q91.032 23.4 91.656 23.4Q92.28 23.4 92.688 22.98Q93.096 22.56 93.096 21.936L93.096 16.248Q93.096 15.384 93.324 14.748Q93.552 14.112 93.924 13.68Q94.296 13.248 94.74 13.044Q95.184 12.84 95.616 12.84Q96.096 12.84 96.468 13.008Q96.84 13.176 97.296 13.176Q97.776 13.176 98.184 12.828Q98.592 12.48 98.592 11.688Q98.592 11.136 98.1 10.728Q97.608 10.32 96.888 10.32Q96.288 10.32 95.688 10.464Q95.088 10.608 94.56 10.908Q94.032 11.208 93.612 11.652Q93.315 11.966 93.096 12.346L93.096 12.024Q93.096 11.4 92.688 10.98Q92.28 10.56 91.656 10.56Q91.032 10.56 90.624 10.98Q90.216 11.4 90.216 12.024L90.216 21.936Q90.216 22.56 90.624 22.98ZM117.972 22.788Q119.472 23.64 121.512 23.64Q122.712 23.64 123.84 23.244Q124.968 22.848 125.592 22.32Q126.264 21.792 126.264 21.144Q126.264 20.664 125.916 20.304Q125.568 19.944 125.04 19.944Q124.656 19.944 124.224 20.16Q123.96 20.304 123.636 20.508Q123.312 20.712 122.784 20.856Q122.256 21 121.368 21Q120.408 21 119.556 20.532Q118.704 20.064 118.164 19.164Q117.848 18.6377 117.717 17.976L125.64 17.976Q126.216 17.976 126.648 17.616Q127.08 17.256 127.104 16.68Q127.104 15.384 126.612 14.232Q126.12 13.08 125.28 12.204Q124.44 11.328 123.348 10.824Q122.256 10.32 121.032 10.32Q119.448 10.32 118.032 11.136Q116.616 11.952 115.74 13.476Q114.864 15 114.864 17.16Q114.864 19.008 115.668 20.472Q116.472 21.936 117.972 22.788ZM130.08 10.56Q130.536 10.56 130.92 10.788Q131.304 11.016 131.496 11.472L134.812 19.0503L138.096 11.496Q138.504 10.536 139.368 10.584Q139.968 10.584 140.34 10.956Q140.712 11.328 140.712 11.88Q140.712 12.048 140.652 12.24Q140.592 12.432 140.52 12.6L136.032 22.488C135.776 23.064 135.368 23.368 134.808 23.4Q134.352 23.472 133.932 23.232Q133.512 22.992 133.296 22.488L128.832 12.6Q128.784 12.48 128.724 12.288Q128.664 12.096 128.664 11.832Q128.664 11.4 129.048 10.98Q129.432 10.56 130.08 10.56ZM9.612 23.244C9.812 23.348 10 23.4 10.176 23.4Q10.584 23.4 10.98 22.956Q11.376 22.512 11.376 21.936Q11.376 21.672 11.256 21.42Q11.136 21.168 10.848 21L4.49779 17.2043L10.872 13.512Q11.136 13.344 11.268 13.116Q11.4 12.888 11.4 12.648Q11.4 12.144 10.98 11.676Q10.56 11.208 10.08 11.208Q9.84 11.208 9.564 11.316Q9.288 11.424 8.976 11.616L1.176 16.104Q0.888 16.272 0.744 16.572Q0.6 16.872 0.6 17.208Q0.6 17.52 0.744 17.82Q0.888 18.12 1.176 18.312L8.976 22.896Q9.312 23.088 9.612 23.244ZM143.052 22.932Q143.472 23.4 143.952 23.4C144.128 23.4 144.304 23.36 144.48 23.28Q144.744 23.16 145.056 22.992L152.856 18.504Q153.144 18.336 153.288 18.036Q153.432 17.736 153.432 17.4Q153.432 17.064 153.288 16.764Q153.144 16.464 152.856 16.296L145.056 11.712Q144.72 11.52 144.42 11.364Q144.12 11.208 143.856 11.208Q143.472 11.208 143.064 11.652Q142.656 12.096 142.656 12.672Q142.656 12.936 142.776 13.188Q142.896 13.44 143.184 13.608L149.534 17.4037L143.16 21.096Q142.896 21.264 142.764 21.48Q142.632 21.696 142.632 21.96Q142.632 22.464 143.052 22.932ZM34.08 12.96Q33.024 12.96 32.232 13.488Q31.44 14.016 30.996 14.916Q30.552 15.816 30.552 16.968Q30.552 18.096 30.996 19.02Q31.44 19.944 32.232 20.472Q33.024 21 34.08 21Q35.136 21 35.916 20.472Q36.696 19.944 37.14 19.02Q37.584 18.096 37.584 16.968Q37.584 15.816 37.14 14.916Q36.696 14.016 35.916 13.488Q35.136 12.96 34.08 12.96ZM44.9024 15.576Q44.9608 15.2777 45.048 15.024Q45.312 14.256 45.768 13.8Q46.224 13.344 46.848 13.152Q47.472 12.96 48.192 12.96Q48.936 12.96 49.596 13.284Q50.256 13.608 50.7 14.16Q51.144 14.712 51.192 15.408L51.192 15.576L44.9024 15.576ZM78.6 15.024Q78.5128 15.2777 78.4544 15.576L84.744 15.576L84.744 15.408Q84.696 14.712 84.252 14.16Q83.808 13.608 83.148 13.284Q82.488 12.96 81.744 12.96Q81.024 12.96 80.4 13.152Q79.776 13.344 79.32 13.8Q78.864 14.256 78.6 15.024ZM106.176 21Q107.232 21 108.024 20.472Q108.816 19.944 109.26 19.032Q109.704 18.12 109.704 16.992Q109.704 15.84 109.26 14.928Q108.816 14.016 108.024 13.488Q107.232 12.96 106.176 12.96Q105.144 12.96 104.352 13.488Q103.56 14.016 103.116 14.928Q102.672 15.84 102.672 16.992Q102.672 18.12 103.116 19.032Q103.56 19.944 104.352 20.472Q105.144 21 106.176 21ZM117.742 15.576Q117.801 15.2777 117.888 15.024Q118.152 14.256 118.608 13.8Q119.064 13.344 119.688 13.152Q120.312 12.96 121.032 12.96Q121.776 12.96 122.436 13.284Q123.096 13.608 123.54 14.16Q123.984 14.712 124.032 15.408L124.032 15.576L117.742 15.576Z" />
  </g>
</svg>